<svg width="209" height="13" viewBox="0 0 209 13" fill="none" xmlns="http://www.w3.org/2000/svg">
<path d="M4.98 10.12C4.348 10.12 3.756 10.004 3.204 9.772C2.652 9.532 2.164 9.204 1.74 8.788C1.324 8.372 0.996 7.888 0.756 7.336C0.524 6.776 0.408 6.18 0.408 5.548C0.408 4.916 0.524 4.324 0.756 3.772C0.996 3.22 1.324 2.736 1.74 2.32C2.164 1.896 2.652 1.568 3.204 1.336C3.756 1.096 4.348 0.976 4.98 0.976C5.612 0.976 6.204 1.096 6.756 1.336C7.308 1.568 7.792 1.896 8.208 2.32C8.632 2.736 8.96 3.22 9.192 3.772C9.432 4.324 9.552 4.916 9.552 5.548C9.552 6.18 9.432 6.776 9.192 7.336C8.96 7.888 8.632 8.372 8.208 8.788C7.792 9.204 7.308 9.532 6.756 9.772C6.204 10.004 5.612 10.12 4.98 10.12ZM4.98 9.4C5.5 9.4 5.988 9.312 6.444 9.136C6.908 8.96 7.316 8.704 7.668 8.368C8.02 8.024 8.296 7.616 8.496 7.144C8.696 6.664 8.796 6.132 8.796 5.548C8.796 4.972 8.696 4.448 8.496 3.976C8.296 3.496 8.02 3.084 7.668 2.74C7.316 2.396 6.908 2.136 6.444 1.96C5.988 1.776 5.5 1.684 4.98 1.684C4.452 1.684 3.956 1.776 3.492 1.96C3.028 2.136 2.62 2.396 2.268 2.74C1.924 3.084 1.652 3.496 1.452 3.976C1.26 4.448 1.164 4.972 1.164 5.548C1.164 6.132 1.26 6.664 1.452 7.144C1.652 7.616 1.924 8.024 2.268 8.368C2.62 8.704 3.028 8.96 3.492 9.136C3.956 9.312 4.452 9.4 4.98 9.4ZM5.004 2.944C5.332 2.944 5.62 3 5.868 3.112C6.116 3.224 6.328 3.376 6.504 3.568C6.688 3.752 6.844 3.952 6.972 4.168C6.988 4.208 6.988 4.236 6.972 4.252C6.964 4.268 6.948 4.28 6.924 4.288L6.336 4.456C6.288 4.472 6.248 4.448 6.216 4.384C6.072 4.144 5.904 3.956 5.712 3.82C5.528 3.676 5.308 3.604 5.052 3.604C4.612 3.604 4.252 3.776 3.972 4.12C3.7 4.456 3.564 4.92 3.564 5.512C3.564 6.104 3.704 6.572 3.984 6.916C4.272 7.26 4.636 7.432 5.076 7.432C5.388 7.432 5.656 7.348 5.88 7.18C6.104 7.012 6.284 6.8 6.42 6.544C6.444 6.496 6.492 6.488 6.564 6.52L6.972 6.676C7.02 6.692 7.032 6.732 7.008 6.796C6.92 6.964 6.812 7.124 6.684 7.276C6.564 7.428 6.42 7.568 6.252 7.696C6.084 7.816 5.896 7.912 5.688 7.984C5.48 8.048 5.252 8.08 5.004 8.08C4.548 8.08 4.144 7.976 3.792 7.768C3.44 7.552 3.164 7.252 2.964 6.868C2.772 6.484 2.676 6.04 2.676 5.536C2.676 5.024 2.776 4.576 2.976 4.192C3.176 3.8 3.452 3.496 3.804 3.28C4.156 3.056 4.556 2.944 5.004 2.944ZM15.9953 6.268C16.3313 5.948 16.6153 5.664 16.8473 5.416C17.0793 5.16 17.2633 4.924 17.3993 4.708C17.5433 4.484 17.6473 4.272 17.7113 4.072C17.7833 3.864 17.8193 3.652 17.8193 3.436C17.8193 3.092 17.7313 2.804 17.5553 2.572C17.3793 2.34 17.1553 2.168 16.8833 2.056C16.6193 1.936 16.3393 1.876 16.0433 1.876C15.8113 1.876 15.5713 1.916 15.3233 1.996C15.0753 2.068 14.8353 2.192 14.6033 2.368C14.3793 2.544 14.1753 2.776 13.9913 3.064C13.9753 3.096 13.9433 3.116 13.8953 3.124C13.8553 3.132 13.8073 3.12 13.7513 3.088L13.2233 2.776C13.1673 2.736 13.1353 2.696 13.1273 2.656C13.1273 2.608 13.1433 2.56 13.1753 2.512C13.5433 1.976 13.9873 1.588 14.5073 1.348C15.0353 1.1 15.5793 0.976 16.1393 0.976C16.6433 0.976 17.1073 1.068 17.5313 1.252C17.9553 1.436 18.2953 1.712 18.5513 2.08C18.8073 2.448 18.9353 2.912 18.9353 3.472C18.9353 3.824 18.8713 4.156 18.7433 4.468C18.6233 4.78 18.4193 5.104 18.1313 5.44C17.8513 5.776 17.4753 6.168 17.0033 6.616L14.5913 8.884C14.5433 8.916 14.5233 8.948 14.5313 8.98C14.5473 9.012 14.5913 9.028 14.6633 9.028H18.8753C18.9793 9.028 19.0313 9.072 19.0313 9.16V9.856C19.0313 9.904 19.0193 9.94 18.9953 9.964C18.9793 9.988 18.9393 10 18.8753 10H13.3073C13.2353 10 13.1833 9.988 13.1513 9.964C13.1273 9.94 13.1153 9.888 13.1153 9.808V9.316C13.1153 9.26 13.1193 9.212 13.1273 9.172C13.1433 9.124 13.1753 9.072 13.2233 9.016C13.2713 8.96 13.3433 8.892 13.4393 8.812L15.9953 6.268ZM23.8509 0.976C24.3229 0.976 24.7589 1.076 25.1589 1.276C25.5669 1.468 25.9189 1.76 26.2149 2.152C26.5189 2.544 26.7549 3.028 26.9229 3.604C27.0909 4.172 27.1749 4.828 27.1749 5.572C27.1749 6.564 27.0269 7.396 26.7309 8.068C26.4429 8.74 26.0469 9.248 25.5429 9.592C25.0389 9.936 24.4709 10.108 23.8389 10.108C23.1989 10.108 22.6269 9.936 22.1229 9.592C21.6189 9.248 21.2229 8.74 20.9349 8.068C20.6469 7.396 20.5029 6.568 20.5029 5.584C20.5029 4.84 20.5869 4.184 20.7549 3.616C20.9229 3.04 21.1589 2.556 21.4629 2.164C21.7669 1.764 22.1229 1.468 22.5309 1.276C22.9389 1.076 23.3789 0.976 23.8509 0.976ZM23.8509 9.232C24.2909 9.232 24.6709 9.108 24.9909 8.86C25.3109 8.612 25.5589 8.22 25.7349 7.684C25.9109 7.14 25.9989 6.436 25.9989 5.572C25.9989 4.692 25.9069 3.98 25.7229 3.436C25.5469 2.892 25.2949 2.492 24.9669 2.236C24.6469 1.98 24.2709 1.852 23.8389 1.852C23.4069 1.852 23.0269 1.98 22.6989 2.236C22.3789 2.492 22.1269 2.896 21.9429 3.448C21.7669 3.992 21.6789 4.7 21.6789 5.572C21.6789 6.436 21.7669 7.14 21.9429 7.684C22.1269 8.22 22.3829 8.612 22.7109 8.86C23.0389 9.108 23.4189 9.232 23.8509 9.232ZM32.9167 9.088C33.0047 9.088 33.0487 9.128 33.0487 9.208V9.88C33.0487 9.904 33.0367 9.932 33.0127 9.964C32.9967 9.988 32.9647 10 32.9167 10H28.7047C28.6167 10 28.5727 9.96 28.5727 9.88V9.208C28.5727 9.128 28.6167 9.088 28.7047 9.088H30.2167C30.2807 9.088 30.3127 9.068 30.3127 9.028V2.428C30.3127 2.348 30.2767 2.316 30.2047 2.332L28.7167 2.884C28.6127 2.908 28.5607 2.86 28.5607 2.74V2.26C28.5607 2.204 28.5687 2.168 28.5847 2.152C28.6007 2.128 28.6327 2.104 28.6807 2.08L30.4567 1.192C30.5367 1.152 30.6007 1.128 30.6487 1.12C30.6967 1.104 30.7527 1.096 30.8167 1.096H31.3327C31.4207 1.096 31.4647 1.144 31.4647 1.24V9.004C31.4647 9.06 31.4887 9.088 31.5367 9.088H32.9167ZM37.5468 0.976C38.1308 0.976 38.6428 1.08 39.0828 1.288C39.5228 1.488 39.8668 1.772 40.1148 2.14C40.3628 2.508 40.4868 2.936 40.4868 3.424C40.4868 3.8 40.3908 4.136 40.1988 4.432C40.0068 4.728 39.6988 5.024 39.2748 5.32C39.1548 5.4 39.1508 5.464 39.2628 5.512C39.6308 5.656 39.9308 5.832 40.1628 6.04C40.4028 6.248 40.5828 6.488 40.7028 6.76C40.8228 7.024 40.8828 7.316 40.8828 7.636C40.8828 8.14 40.7388 8.58 40.4508 8.956C40.1708 9.332 39.7788 9.62 39.2748 9.82C38.7708 10.02 38.1828 10.12 37.5108 10.12C36.8548 10.12 36.2828 10.028 35.7948 9.844C35.3068 9.66 34.9308 9.396 34.6668 9.052C34.4108 8.7 34.2828 8.28 34.2828 7.792C34.2828 7.368 34.3868 6.988 34.5948 6.652C34.8108 6.308 35.1628 5.984 35.6508 5.68C35.7468 5.624 35.7948 5.58 35.7948 5.548C35.8028 5.508 35.7588 5.464 35.6628 5.416C35.4388 5.288 35.2388 5.136 35.0628 4.96C34.8948 4.784 34.7628 4.58 34.6668 4.348C34.5708 4.116 34.5228 3.852 34.5228 3.556C34.5228 3.068 34.6468 2.632 34.8948 2.248C35.1508 1.856 35.5068 1.548 35.9628 1.324C36.4188 1.092 36.9468 0.976 37.5468 0.976ZM37.5588 1.816C37.1988 1.816 36.8708 1.888 36.5748 2.032C36.2788 2.176 36.0428 2.372 35.8668 2.62C35.6988 2.86 35.6148 3.14 35.6148 3.46C35.6148 4.188 36.0268 4.644 36.8508 4.828L38.0868 5.116C38.1988 5.148 38.3308 5.12 38.4828 5.032C38.6428 4.944 38.7988 4.816 38.9508 4.648C39.1028 4.48 39.2268 4.288 39.3228 4.072C39.4188 3.856 39.4668 3.636 39.4668 3.412C39.4668 2.94 39.2948 2.556 38.9508 2.26C38.6068 1.964 38.1428 1.816 37.5588 1.816ZM37.5708 9.28C38.2348 9.28 38.7628 9.136 39.1548 8.848C39.5468 8.56 39.7428 8.172 39.7428 7.684C39.7428 7.316 39.6428 7.016 39.4428 6.784C39.2428 6.552 38.9188 6.384 38.4708 6.28L36.9108 5.896C36.7908 5.864 36.6428 5.888 36.4668 5.968C36.2908 6.04 36.1148 6.16 35.9388 6.328C35.7628 6.488 35.6108 6.684 35.4828 6.916C35.3628 7.14 35.3028 7.388 35.3028 7.66C35.3028 8.172 35.4948 8.572 35.8788 8.86C36.2708 9.14 36.8348 9.28 37.5708 9.28ZM50.1088 2.752C49.9008 2.504 49.6328 2.292 49.3048 2.116C48.9768 1.94 48.5648 1.852 48.0688 1.852C47.4688 1.852 46.9968 1.984 46.6528 2.248C46.3088 2.512 46.1368 2.88 46.1368 3.352C46.1368 3.48 46.1648 3.628 46.2208 3.796C46.2848 3.964 46.4088 4.128 46.5928 4.288C46.7768 4.448 47.0528 4.592 47.4208 4.72L49.1608 5.296C49.8888 5.536 50.4048 5.856 50.7088 6.256C51.0128 6.648 51.1648 7.112 51.1648 7.648C51.1648 8.16 51.0368 8.604 50.7808 8.98C50.5248 9.348 50.1608 9.632 49.6888 9.832C49.2168 10.024 48.6488 10.12 47.9848 10.12C47.5048 10.12 47.0608 10.064 46.6528 9.952C46.2448 9.832 45.8808 9.664 45.5608 9.448C45.2488 9.224 44.9808 8.948 44.7568 8.62C44.7168 8.564 44.7008 8.516 44.7088 8.476C44.7248 8.428 44.7648 8.38 44.8288 8.332L45.2608 8.032C45.3408 7.984 45.4008 7.96 45.4408 7.96C45.4888 7.96 45.5288 7.984 45.5608 8.032C45.7768 8.304 45.9888 8.532 46.1968 8.716C46.4048 8.892 46.6448 9.024 46.9168 9.112C47.1968 9.2 47.5368 9.244 47.9368 9.244C48.5688 9.244 49.0808 9.132 49.4728 8.908C49.8648 8.676 50.0608 8.296 50.0608 7.768C50.0608 7.568 50.0208 7.388 49.9408 7.228C49.8608 7.06 49.7248 6.908 49.5328 6.772C49.3408 6.628 49.0648 6.488 48.7048 6.352L46.8808 5.728C46.4408 5.576 46.0848 5.38 45.8128 5.14C45.5408 4.9 45.3408 4.636 45.2128 4.348C45.0928 4.06 45.0328 3.764 45.0328 3.46C45.0328 2.956 45.1608 2.52 45.4168 2.152C45.6728 1.776 46.0248 1.488 46.4728 1.288C46.9288 1.08 47.4608 0.976 48.0688 0.976C48.4768 0.976 48.8488 1.024 49.1848 1.12C49.5288 1.216 49.8408 1.352 50.1208 1.528C50.4088 1.704 50.6608 1.916 50.8768 2.164C50.9088 2.196 50.9288 2.232 50.9368 2.272C50.9448 2.312 50.9248 2.352 50.8768 2.392L50.3248 2.824C50.2848 2.848 50.2528 2.856 50.2288 2.848C50.2048 2.832 50.1648 2.8 50.1088 2.752ZM53.5723 3.64C53.6843 3.64 53.7403 3.7 53.7403 3.82V4.324C53.7403 4.388 53.7523 4.424 53.7763 4.432C53.8083 4.432 53.8483 4.412 53.8963 4.372C53.9843 4.276 54.1043 4.164 54.2563 4.036C54.4083 3.9 54.6043 3.78 54.8443 3.676C55.0923 3.572 55.4043 3.52 55.7803 3.52C56.2683 3.52 56.7083 3.64 57.1003 3.88C57.5003 4.112 57.8163 4.464 58.0483 4.936C58.2883 5.408 58.4083 6.004 58.4083 6.724C58.4083 7.444 58.2923 8.056 58.0603 8.56C57.8283 9.064 57.5043 9.452 57.0883 9.724C56.6803 9.988 56.2003 10.12 55.6483 10.12C55.2803 10.12 54.9523 10.064 54.6643 9.952C54.3843 9.832 54.1443 9.688 53.9443 9.52C53.8723 9.456 53.8203 9.432 53.7883 9.448C53.7643 9.456 53.7523 9.504 53.7523 9.592V11.824C53.7523 11.928 53.7083 11.98 53.6203 11.98H52.8763C52.7883 11.98 52.7443 11.928 52.7443 11.824V3.832C52.7443 3.76 52.7563 3.712 52.7803 3.688C52.8123 3.656 52.8643 3.64 52.9363 3.64H53.5723ZM53.7523 8.596C54.0003 8.836 54.2523 9.028 54.5083 9.172C54.7723 9.316 55.0643 9.388 55.3843 9.388C55.7683 9.388 56.1083 9.288 56.4043 9.088C56.7083 8.888 56.9443 8.592 57.1123 8.2C57.2883 7.808 57.3763 7.32 57.3763 6.736C57.3763 6.152 57.2883 5.676 57.1123 5.308C56.9363 4.94 56.7003 4.672 56.4043 4.504C56.1163 4.336 55.7963 4.252 55.4443 4.252C55.1163 4.252 54.8243 4.324 54.5683 4.468C54.3123 4.612 54.1123 4.792 53.9683 5.008C53.8243 5.216 53.7523 5.424 53.7523 5.632V8.596ZM62.5685 10.12C61.9685 10.12 61.4365 9.984 60.9725 9.712C60.5165 9.432 60.1605 9.048 59.9045 8.56C59.6565 8.064 59.5325 7.496 59.5325 6.856C59.5325 6.192 59.6605 5.612 59.9165 5.116C60.1805 4.612 60.5405 4.22 60.9965 3.94C61.4525 3.66 61.9805 3.52 62.5805 3.52C63.1885 3.52 63.7165 3.664 64.1645 3.952C64.6205 4.232 64.9725 4.624 65.2205 5.128C65.4765 5.624 65.6045 6.196 65.6045 6.844C65.6045 7.484 65.4765 8.052 65.2205 8.548C64.9645 9.036 64.6085 9.42 64.1525 9.7C63.7045 9.98 63.1765 10.12 62.5685 10.12ZM62.5925 9.364C63.0085 9.364 63.3645 9.264 63.6605 9.064C63.9565 8.856 64.1805 8.564 64.3325 8.188C64.4925 7.804 64.5725 7.348 64.5725 6.82C64.5725 6.292 64.4925 5.84 64.3325 5.464C64.1725 5.08 63.9445 4.784 63.6485 4.576C63.3525 4.368 62.9965 4.264 62.5805 4.264C62.1725 4.264 61.8165 4.368 61.5125 4.576C61.2085 4.784 60.9725 5.08 60.8045 5.464C60.6445 5.84 60.5645 6.292 60.5645 6.82C60.5645 7.34 60.6445 7.792 60.8045 8.176C60.9725 8.56 61.2085 8.856 61.5125 9.064C61.8165 9.264 62.1765 9.364 62.5925 9.364ZM69.7521 10.12C69.1521 10.12 68.6201 9.984 68.1561 9.712C67.7001 9.432 67.3441 9.048 67.0881 8.56C66.8401 8.064 66.7161 7.496 66.7161 6.856C66.7161 6.192 66.8441 5.612 67.1001 5.116C67.3641 4.612 67.7241 4.22 68.1801 3.94C68.6361 3.66 69.1641 3.52 69.7641 3.52C70.3721 3.52 70.9001 3.664 71.3481 3.952C71.8041 4.232 72.1561 4.624 72.4041 5.128C72.6601 5.624 72.7881 6.196 72.7881 6.844C72.7881 7.484 72.6601 8.052 72.4041 8.548C72.1481 9.036 71.7921 9.42 71.3361 9.7C70.8881 9.98 70.3601 10.12 69.7521 10.12ZM69.7761 9.364C70.1921 9.364 70.5481 9.264 70.8441 9.064C71.1401 8.856 71.3641 8.564 71.5161 8.188C71.6761 7.804 71.7561 7.348 71.7561 6.82C71.7561 6.292 71.6761 5.84 71.5161 5.464C71.3561 5.08 71.1281 4.784 70.8321 4.576C70.5361 4.368 70.1801 4.264 69.7641 4.264C69.3561 4.264 69.0001 4.368 68.6961 4.576C68.3921 4.784 68.1561 5.08 67.9881 5.464C67.8281 5.84 67.7481 6.292 67.7481 6.82C67.7481 7.34 67.8281 7.792 67.9881 8.176C68.1561 8.56 68.3921 8.856 68.6961 9.064C69.0001 9.264 69.3601 9.364 69.7761 9.364ZM74.4397 10C74.3277 10 74.2717 9.948 74.2717 9.844V3.796C74.2717 3.692 74.3157 3.64 74.4037 3.64H75.1237C75.2117 3.64 75.2557 3.684 75.2557 3.772V4.468C75.2557 4.508 75.2637 4.532 75.2797 4.54C75.2957 4.548 75.3237 4.536 75.3637 4.504C75.6277 4.296 75.8717 4.12 76.0957 3.976C76.3277 3.824 76.5637 3.712 76.8037 3.64C77.0437 3.56 77.2997 3.52 77.5717 3.52C78.1957 3.52 78.6717 3.688 78.9997 4.024C79.3357 4.36 79.5037 4.796 79.5037 5.332V9.808C79.5037 9.936 79.4437 10 79.3237 10H78.6517C78.5957 10 78.5557 9.988 78.5317 9.964C78.5077 9.932 78.4957 9.892 78.4957 9.844V5.56C78.4957 5.168 78.3957 4.864 78.1957 4.648C77.9957 4.424 77.6797 4.312 77.2477 4.312C77.0157 4.312 76.7957 4.352 76.5877 4.432C76.3877 4.504 76.1837 4.612 75.9757 4.756C75.7677 4.892 75.5357 5.068 75.2797 5.284V9.82C75.2797 9.94 75.2197 10 75.0997 10H74.4397ZM85.0939 1.096C85.1899 1.096 85.2379 1.148 85.2379 1.252V9.796C85.2379 9.876 85.2219 9.932 85.1899 9.964C85.1579 9.988 85.1019 10 85.0219 10H84.2659C84.1939 10 84.1459 9.988 84.1219 9.964C84.0979 9.94 84.0859 9.896 84.0859 9.832V1.264C84.0859 1.152 84.1339 1.096 84.2299 1.096H85.0939ZM87.4943 10C87.3823 10 87.3263 9.948 87.3263 9.844V3.796C87.3263 3.692 87.3703 3.64 87.4583 3.64H88.1783C88.2663 3.64 88.3103 3.684 88.3103 3.772V4.468C88.3103 4.508 88.3183 4.532 88.3343 4.54C88.3503 4.548 88.3783 4.536 88.4183 4.504C88.6823 4.296 88.9263 4.12 89.1503 3.976C89.3823 3.824 89.6183 3.712 89.8583 3.64C90.0983 3.56 90.3543 3.52 90.6263 3.52C91.2503 3.52 91.7263 3.688 92.0543 4.024C92.3903 4.36 92.5583 4.796 92.5583 5.332V9.808C92.5583 9.936 92.4983 10 92.3783 10H91.7063C91.6503 10 91.6103 9.988 91.5863 9.964C91.5623 9.932 91.5503 9.892 91.5503 9.844V5.56C91.5503 5.168 91.4503 4.864 91.2503 4.648C91.0503 4.424 90.7343 4.312 90.3023 4.312C90.0703 4.312 89.8503 4.352 89.6423 4.432C89.4423 4.504 89.2383 4.612 89.0303 4.756C88.8223 4.892 88.5903 5.068 88.3343 5.284V9.82C88.3343 9.94 88.2743 10 88.1543 10H87.4943ZM96.9742 3.52C97.3902 3.52 97.7542 3.588 98.0662 3.724C98.3862 3.852 98.6582 4.032 98.8822 4.264C99.1142 4.488 99.3062 4.736 99.4582 5.008C99.5062 5.104 99.4862 5.164 99.3982 5.188L98.7382 5.344C98.6822 5.368 98.6302 5.344 98.5822 5.272C98.4222 5.04 98.2622 4.852 98.1022 4.708C97.9502 4.564 97.7862 4.456 97.6102 4.384C97.4342 4.304 97.2422 4.264 97.0342 4.264C96.6262 4.264 96.2662 4.368 95.9542 4.576C95.6502 4.776 95.4142 5.068 95.2462 5.452C95.0782 5.836 94.9942 6.292 94.9942 6.82C94.9942 7.356 95.0782 7.816 95.2462 8.2C95.4222 8.584 95.6622 8.876 95.9662 9.076C96.2782 9.276 96.6422 9.376 97.0582 9.376C97.4422 9.376 97.7742 9.28 98.0542 9.088C98.3342 8.896 98.5902 8.616 98.8222 8.248C98.8462 8.208 98.8662 8.188 98.8822 8.188C98.9062 8.18 98.9382 8.184 98.9782 8.2L99.4942 8.392C99.5502 8.416 99.5662 8.468 99.5422 8.548C99.4222 8.756 99.2822 8.956 99.1222 9.148C98.9622 9.34 98.7742 9.508 98.5582 9.652C98.3502 9.796 98.1142 9.912 97.8502 10C97.5862 10.08 97.2942 10.12 96.9742 10.12C96.3822 10.12 95.8582 9.984 95.4022 9.712C94.9542 9.432 94.6022 9.048 94.3462 8.56C94.0902 8.064 93.9622 7.492 93.9622 6.844C93.9622 6.188 94.0902 5.612 94.3462 5.116C94.6102 4.62 94.9662 4.232 95.4142 3.952C95.8702 3.664 96.3902 3.52 96.9742 3.52ZM100.538 11.716C100.498 11.716 100.47 11.7 100.454 11.668C100.438 11.636 100.438 11.592 100.454 11.536L100.994 10.192C101.05 10.064 101.018 10 100.898 10H100.742C100.638 10 100.586 9.952 100.586 9.856V8.788C100.586 8.7 100.622 8.656 100.694 8.656H101.702C101.782 8.656 101.822 8.696 101.822 8.776V9.76C101.822 9.808 101.81 9.856 101.786 9.904L100.91 11.584C100.886 11.624 100.85 11.656 100.802 11.68C100.762 11.704 100.718 11.716 100.67 11.716H100.538ZM105.683 10C105.635 10 105.599 9.984 105.575 9.952C105.559 9.912 105.559 9.86 105.575 9.796L108.683 1.264C108.707 1.208 108.735 1.168 108.767 1.144C108.799 1.112 108.851 1.096 108.923 1.096H109.859C110.003 1.096 110.095 1.156 110.135 1.276L113.207 9.796C113.223 9.844 113.219 9.892 113.195 9.94C113.179 9.98 113.143 10 113.087 10H112.235C112.139 10 112.075 9.96 112.043 9.88L111.215 7.552C111.199 7.52 111.183 7.496 111.167 7.48C111.151 7.464 111.119 7.456 111.071 7.456H107.579C107.507 7.456 107.459 7.488 107.435 7.552L106.583 9.892C106.575 9.924 106.555 9.952 106.523 9.976C106.499 9.992 106.459 10 106.403 10H105.683ZM110.759 6.544C110.855 6.544 110.887 6.492 110.855 6.388L109.415 2.44C109.383 2.368 109.351 2.332 109.319 2.332C109.295 2.332 109.271 2.368 109.247 2.44L107.783 6.412C107.743 6.5 107.767 6.544 107.855 6.544H110.759ZM115.686 9.796C115.686 9.876 115.67 9.932 115.638 9.964C115.606 9.988 115.55 10 115.47 10H114.846C114.726 10 114.666 9.944 114.666 9.832L114.678 1.264C114.678 1.152 114.726 1.096 114.822 1.096H115.542C115.638 1.096 115.686 1.148 115.686 1.252V9.796ZM118.557 9.796C118.557 9.876 118.541 9.932 118.509 9.964C118.477 9.988 118.421 10 118.341 10H117.717C117.597 10 117.537 9.944 117.537 9.832L117.549 1.264C117.549 1.152 117.597 1.096 117.693 1.096H118.413C118.509 1.096 118.557 1.148 118.557 1.252V9.796ZM123.143 10C123.087 10 123.043 9.988 123.011 9.964C122.987 9.932 122.975 9.892 122.975 9.844V3.796C122.975 3.692 123.019 3.64 123.107 3.64H123.803C123.891 3.64 123.935 3.684 123.935 3.772V4.552C123.935 4.6 123.947 4.628 123.971 4.636C123.995 4.644 124.027 4.628 124.067 4.588C124.275 4.34 124.479 4.14 124.679 3.988C124.887 3.828 125.095 3.712 125.303 3.64C125.511 3.56 125.719 3.52 125.927 3.52C126.207 3.52 126.347 3.572 126.347 3.676V4.396C126.347 4.476 126.311 4.508 126.239 4.492C126.167 4.484 126.083 4.476 125.987 4.468C125.899 4.46 125.803 4.456 125.699 4.456C125.523 4.456 125.335 4.496 125.135 4.576C124.935 4.648 124.747 4.752 124.571 4.888C124.403 5.024 124.263 5.176 124.151 5.344C124.039 5.512 123.983 5.68 123.983 5.848V9.82C123.983 9.94 123.923 10 123.803 10H123.143ZM128.577 9.796C128.577 9.876 128.561 9.932 128.529 9.964C128.505 9.988 128.449 10 128.361 10H127.749C127.677 10 127.629 9.988 127.605 9.964C127.581 9.94 127.569 9.896 127.569 9.832V3.808C127.569 3.696 127.617 3.64 127.713 3.64H128.445C128.533 3.64 128.577 3.692 128.577 3.796V9.796ZM128.625 2.272C128.625 2.424 128.553 2.5 128.409 2.5H127.713C127.641 2.5 127.593 2.484 127.569 2.452C127.545 2.412 127.533 2.36 127.533 2.296V1.288C127.533 1.16 127.589 1.096 127.701 1.096H128.457C128.569 1.096 128.625 1.156 128.625 1.276V2.272ZM136.188 3.532C136.268 3.532 136.324 3.548 136.356 3.58C136.396 3.612 136.416 3.66 136.416 3.724V4.144C136.416 4.216 136.396 4.272 136.356 4.312C136.324 4.352 136.264 4.368 136.176 4.36C136.048 4.36 135.936 4.368 135.84 4.384C135.744 4.4 135.648 4.428 135.552 4.468C135.36 4.54 135.28 4.632 135.312 4.744C135.352 4.832 135.396 4.94 135.444 5.068C135.492 5.188 135.516 5.352 135.516 5.56C135.516 5.912 135.424 6.236 135.24 6.532C135.056 6.82 134.768 7.052 134.376 7.228C133.992 7.404 133.504 7.492 132.912 7.492C132.504 7.492 132.184 7.516 131.952 7.564C131.72 7.612 131.556 7.676 131.46 7.756C131.364 7.836 131.316 7.92 131.316 8.008C131.316 8.136 131.4 8.228 131.568 8.284C131.744 8.34 132.024 8.38 132.408 8.404L133.956 8.488C134.66 8.528 135.176 8.696 135.504 8.992C135.832 9.288 135.996 9.676 135.996 10.156C135.996 10.756 135.728 11.228 135.192 11.572C134.664 11.924 133.908 12.1 132.924 12.1C131.908 12.1 131.132 11.952 130.596 11.656C130.068 11.368 129.804 10.952 129.804 10.408C129.804 10.128 129.9 9.876 130.092 9.652C130.292 9.428 130.572 9.228 130.932 9.052C131.02 9.012 131.02 8.968 130.932 8.92C130.756 8.84 130.62 8.744 130.524 8.632C130.428 8.512 130.38 8.372 130.38 8.212C130.38 8.1 130.416 7.988 130.488 7.876C130.56 7.764 130.664 7.66 130.8 7.564C130.944 7.468 131.116 7.384 131.316 7.312C131.364 7.296 131.388 7.276 131.388 7.252C131.388 7.228 131.368 7.2 131.328 7.168C130.976 6.992 130.716 6.772 130.548 6.508C130.38 6.244 130.296 5.928 130.296 5.56C130.296 4.936 130.532 4.444 131.004 4.084C131.476 3.724 132.144 3.544 133.008 3.544C133.424 3.544 133.776 3.592 134.064 3.688C134.36 3.784 134.608 3.916 134.808 4.084C134.856 4.124 134.9 4.144 134.94 4.144C134.98 4.144 135.02 4.124 135.06 4.084C135.156 3.996 135.264 3.912 135.384 3.832C135.504 3.744 135.632 3.672 135.768 3.616C135.912 3.56 136.052 3.532 136.188 3.532ZM132.912 6.856C133.472 6.856 133.888 6.744 134.16 6.52C134.432 6.288 134.568 5.964 134.568 5.548C134.568 5.124 134.432 4.792 134.16 4.552C133.888 4.304 133.472 4.18 132.912 4.18C132.376 4.18 131.96 4.304 131.664 4.552C131.376 4.792 131.232 5.124 131.232 5.548C131.232 5.964 131.376 6.288 131.664 6.52C131.96 6.744 132.376 6.856 132.912 6.856ZM131.856 9.22C131.712 9.212 131.552 9.256 131.376 9.352C131.2 9.44 131.044 9.564 130.908 9.724C130.772 9.884 130.704 10.072 130.704 10.288C130.704 10.536 130.788 10.748 130.956 10.924C131.132 11.108 131.392 11.244 131.736 11.332C132.088 11.428 132.52 11.476 133.032 11.476C133.696 11.476 134.2 11.376 134.544 11.176C134.888 10.984 135.06 10.684 135.06 10.276C135.06 10.012 134.968 9.796 134.784 9.628C134.608 9.46 134.3 9.364 133.86 9.34L131.856 9.22ZM137.826 10C137.722 10 137.67 9.948 137.67 9.844V1.252C137.67 1.148 137.714 1.096 137.802 1.096H138.51C138.598 1.096 138.642 1.144 138.642 1.24V4.444C138.642 4.484 138.65 4.508 138.666 4.516C138.682 4.524 138.71 4.512 138.75 4.48C139.03 4.264 139.286 4.084 139.518 3.94C139.758 3.796 139.99 3.692 140.214 3.628C140.446 3.556 140.698 3.52 140.97 3.52C141.594 3.52 142.07 3.688 142.398 4.024C142.726 4.352 142.89 4.792 142.89 5.344V9.808C142.89 9.936 142.83 10 142.71 10H142.038C141.982 10 141.942 9.988 141.918 9.964C141.894 9.932 141.882 9.892 141.882 9.844V5.56C141.882 5.168 141.782 4.864 141.582 4.648C141.382 4.424 141.066 4.312 140.634 4.312C140.402 4.312 140.182 4.352 139.974 4.432C139.774 4.504 139.57 4.612 139.362 4.756C139.154 4.892 138.926 5.068 138.678 5.284V9.82C138.678 9.94 138.614 10 138.486 10H137.826ZM146.194 4.396C146.13 4.396 146.098 4.428 146.098 4.492V8.296C146.098 8.672 146.162 8.924 146.29 9.052C146.418 9.18 146.61 9.244 146.866 9.244H147.694C147.734 9.244 147.766 9.256 147.79 9.28C147.814 9.296 147.826 9.328 147.826 9.376L147.814 9.784C147.814 9.864 147.766 9.916 147.67 9.94C147.59 9.956 147.474 9.968 147.322 9.976C147.178 9.984 147.034 9.992 146.89 10C146.754 10 146.638 10 146.542 10C146.038 10 145.67 9.884 145.438 9.652C145.206 9.412 145.09 9.036 145.09 8.524V4.516C145.09 4.436 145.05 4.396 144.97 4.396H144.01C143.922 4.396 143.878 4.352 143.878 4.264V3.76C143.878 3.68 143.918 3.64 143.998 3.64H145.018C145.074 3.64 145.102 3.608 145.102 3.544L145.234 1.636C145.242 1.532 145.286 1.48 145.366 1.48H145.966C146.062 1.48 146.11 1.536 146.11 1.648V3.544C146.11 3.608 146.142 3.64 146.206 3.64H147.718C147.806 3.64 147.85 3.676 147.85 3.748V4.264C147.85 4.352 147.806 4.396 147.718 4.396H146.194ZM152.97 5.044C152.81 4.804 152.586 4.608 152.298 4.456C152.01 4.304 151.666 4.228 151.266 4.228C150.834 4.228 150.474 4.32 150.186 4.504C149.906 4.688 149.766 4.936 149.766 5.248C149.766 5.416 149.83 5.576 149.958 5.728C150.086 5.872 150.346 6.008 150.738 6.136L152.262 6.592C152.814 6.744 153.21 6.964 153.45 7.252C153.698 7.54 153.822 7.872 153.822 8.248C153.822 8.624 153.71 8.952 153.486 9.232C153.262 9.512 152.954 9.732 152.562 9.892C152.17 10.044 151.726 10.12 151.23 10.12C150.598 10.12 150.046 9.996 149.574 9.748C149.102 9.492 148.766 9.176 148.566 8.8C148.542 8.76 148.53 8.724 148.53 8.692C148.53 8.66 148.55 8.632 148.59 8.608L149.058 8.344C149.098 8.32 149.134 8.312 149.166 8.32C149.198 8.32 149.222 8.332 149.238 8.356C149.374 8.564 149.53 8.744 149.706 8.896C149.89 9.048 150.106 9.168 150.354 9.256C150.61 9.344 150.906 9.388 151.242 9.388C151.546 9.38 151.822 9.336 152.07 9.256C152.318 9.176 152.514 9.06 152.658 8.908C152.802 8.748 152.874 8.564 152.874 8.356C152.874 8.14 152.786 7.956 152.61 7.804C152.434 7.644 152.13 7.504 151.698 7.384L150.462 7.036C149.862 6.876 149.438 6.66 149.19 6.388C148.95 6.116 148.826 5.796 148.818 5.428C148.818 5.044 148.922 4.712 149.13 4.432C149.338 4.144 149.626 3.92 149.994 3.76C150.37 3.6 150.798 3.52 151.278 3.52C151.814 3.52 152.29 3.624 152.706 3.832C153.13 4.032 153.45 4.3 153.666 4.636C153.69 4.668 153.702 4.7 153.702 4.732C153.702 4.756 153.686 4.78 153.654 4.804L153.15 5.08C153.118 5.096 153.086 5.104 153.054 5.104C153.03 5.096 153.002 5.076 152.97 5.044ZM158.03 10C157.974 10 157.93 9.988 157.898 9.964C157.874 9.932 157.862 9.892 157.862 9.844V3.796C157.862 3.692 157.906 3.64 157.994 3.64H158.69C158.778 3.64 158.822 3.684 158.822 3.772V4.552C158.822 4.6 158.834 4.628 158.858 4.636C158.882 4.644 158.914 4.628 158.954 4.588C159.162 4.34 159.366 4.14 159.566 3.988C159.774 3.828 159.982 3.712 160.19 3.64C160.398 3.56 160.606 3.52 160.814 3.52C161.094 3.52 161.234 3.572 161.234 3.676V4.396C161.234 4.476 161.198 4.508 161.126 4.492C161.054 4.484 160.97 4.476 160.874 4.468C160.786 4.46 160.69 4.456 160.586 4.456C160.41 4.456 160.222 4.496 160.021 4.576C159.822 4.648 159.634 4.752 159.458 4.888C159.29 5.024 159.15 5.176 159.038 5.344C158.926 5.512 158.87 5.68 158.87 5.848V9.82C158.87 9.94 158.81 10 158.69 10H158.03ZM162.975 7.216C162.975 7.608 163.067 7.968 163.251 8.296C163.443 8.616 163.695 8.872 164.007 9.064C164.327 9.256 164.683 9.352 165.075 9.352C165.475 9.352 165.831 9.272 166.143 9.112C166.455 8.944 166.723 8.692 166.947 8.356C166.979 8.324 167.003 8.308 167.019 8.308C167.043 8.3 167.075 8.304 167.115 8.32L167.619 8.572C167.691 8.612 167.699 8.668 167.643 8.74C167.427 9.06 167.187 9.324 166.923 9.532C166.667 9.732 166.379 9.88 166.059 9.976C165.739 10.072 165.379 10.12 164.979 10.12C164.387 10.12 163.863 9.984 163.407 9.712C162.951 9.44 162.591 9.06 162.327 8.572C162.063 8.084 161.931 7.52 161.931 6.88C161.931 6.184 162.063 5.588 162.327 5.092C162.599 4.588 162.963 4.2 163.419 3.928C163.883 3.656 164.399 3.52 164.967 3.52C165.551 3.52 166.059 3.648 166.491 3.904C166.923 4.16 167.259 4.532 167.499 5.02C167.739 5.508 167.859 6.096 167.859 6.784C167.859 6.84 167.851 6.896 167.835 6.952C167.827 7.008 167.775 7.036 167.679 7.036H163.083C163.051 7.036 163.023 7.056 162.999 7.096C162.983 7.128 162.975 7.168 162.975 7.216ZM166.647 6.376C166.735 6.376 166.791 6.368 166.815 6.352C166.839 6.328 166.851 6.28 166.851 6.208C166.851 5.864 166.775 5.544 166.623 5.248C166.479 4.944 166.267 4.7 165.987 4.516C165.715 4.332 165.383 4.24 164.991 4.24C164.559 4.24 164.195 4.344 163.899 4.552C163.603 4.752 163.379 5.016 163.227 5.344C163.075 5.672 162.999 6.016 162.999 6.376H166.647ZM173.092 5.044C172.932 4.804 172.708 4.608 172.42 4.456C172.132 4.304 171.788 4.228 171.388 4.228C170.956 4.228 170.596 4.32 170.308 4.504C170.028 4.688 169.888 4.936 169.888 5.248C169.888 5.416 169.952 5.576 170.08 5.728C170.208 5.872 170.468 6.008 170.86 6.136L172.384 6.592C172.936 6.744 173.332 6.964 173.572 7.252C173.82 7.54 173.944 7.872 173.944 8.248C173.944 8.624 173.832 8.952 173.608 9.232C173.384 9.512 173.076 9.732 172.684 9.892C172.292 10.044 171.848 10.12 171.352 10.12C170.72 10.12 170.168 9.996 169.696 9.748C169.224 9.492 168.888 9.176 168.688 8.8C168.664 8.76 168.652 8.724 168.652 8.692C168.652 8.66 168.672 8.632 168.712 8.608L169.18 8.344C169.22 8.32 169.256 8.312 169.288 8.32C169.32 8.32 169.344 8.332 169.36 8.356C169.496 8.564 169.652 8.744 169.828 8.896C170.012 9.048 170.228 9.168 170.476 9.256C170.732 9.344 171.028 9.388 171.364 9.388C171.668 9.38 171.944 9.336 172.192 9.256C172.44 9.176 172.636 9.06 172.78 8.908C172.924 8.748 172.996 8.564 172.996 8.356C172.996 8.14 172.908 7.956 172.732 7.804C172.556 7.644 172.252 7.504 171.82 7.384L170.584 7.036C169.984 6.876 169.56 6.66 169.312 6.388C169.072 6.116 168.948 5.796 168.94 5.428C168.94 5.044 169.044 4.712 169.252 4.432C169.46 4.144 169.748 3.92 170.116 3.76C170.492 3.6 170.92 3.52 171.4 3.52C171.936 3.52 172.412 3.624 172.828 3.832C173.252 4.032 173.572 4.3 173.788 4.636C173.812 4.668 173.824 4.7 173.824 4.732C173.824 4.756 173.808 4.78 173.776 4.804L173.272 5.08C173.24 5.096 173.208 5.104 173.176 5.104C173.152 5.096 173.124 5.076 173.092 5.044ZM176.088 7.216C176.088 7.608 176.18 7.968 176.364 8.296C176.556 8.616 176.808 8.872 177.12 9.064C177.44 9.256 177.796 9.352 178.188 9.352C178.588 9.352 178.944 9.272 179.256 9.112C179.568 8.944 179.836 8.692 180.06 8.356C180.092 8.324 180.116 8.308 180.132 8.308C180.156 8.3 180.188 8.304 180.228 8.32L180.732 8.572C180.804 8.612 180.812 8.668 180.756 8.74C180.54 9.06 180.3 9.324 180.036 9.532C179.78 9.732 179.492 9.88 179.172 9.976C178.852 10.072 178.492 10.12 178.092 10.12C177.5 10.12 176.976 9.984 176.52 9.712C176.064 9.44 175.704 9.06 175.44 8.572C175.176 8.084 175.044 7.52 175.044 6.88C175.044 6.184 175.176 5.588 175.44 5.092C175.712 4.588 176.076 4.2 176.532 3.928C176.996 3.656 177.512 3.52 178.08 3.52C178.664 3.52 179.172 3.648 179.604 3.904C180.036 4.16 180.372 4.532 180.612 5.02C180.852 5.508 180.972 6.096 180.972 6.784C180.972 6.84 180.964 6.896 180.948 6.952C180.94 7.008 180.888 7.036 180.792 7.036H176.196C176.164 7.036 176.136 7.056 176.112 7.096C176.096 7.128 176.088 7.168 176.088 7.216ZM179.76 6.376C179.848 6.376 179.904 6.368 179.928 6.352C179.952 6.328 179.964 6.28 179.964 6.208C179.964 5.864 179.888 5.544 179.736 5.248C179.592 4.944 179.38 4.7 179.1 4.516C178.828 4.332 178.496 4.24 178.104 4.24C177.672 4.24 177.308 4.344 177.012 4.552C176.716 4.752 176.492 5.016 176.34 5.344C176.188 5.672 176.112 6.016 176.112 6.376H179.76ZM182.557 10C182.501 10 182.457 9.988 182.425 9.964C182.401 9.932 182.389 9.892 182.389 9.844V3.796C182.389 3.692 182.433 3.64 182.521 3.64H183.217C183.305 3.64 183.349 3.684 183.349 3.772V4.552C183.349 4.6 183.361 4.628 183.385 4.636C183.409 4.644 183.441 4.628 183.481 4.588C183.689 4.34 183.893 4.14 184.093 3.988C184.301 3.828 184.509 3.712 184.717 3.64C184.925 3.56 185.133 3.52 185.341 3.52C185.621 3.52 185.761 3.572 185.761 3.676V4.396C185.761 4.476 185.725 4.508 185.653 4.492C185.581 4.484 185.497 4.476 185.401 4.468C185.313 4.46 185.217 4.456 185.113 4.456C184.937 4.456 184.749 4.496 184.549 4.576C184.349 4.648 184.161 4.752 183.985 4.888C183.817 5.024 183.677 5.176 183.565 5.344C183.453 5.512 183.397 5.68 183.397 5.848V9.82C183.397 9.94 183.337 10 183.217 10H182.557ZM192.155 3.64C192.211 3.64 192.251 3.66 192.275 3.7C192.299 3.732 192.299 3.772 192.275 3.82L189.839 9.82C189.799 9.94 189.707 10 189.563 10H189.131C188.979 10 188.879 9.944 188.831 9.832L186.407 3.82C186.391 3.772 186.395 3.732 186.419 3.7C186.443 3.66 186.483 3.64 186.539 3.64H187.283C187.331 3.64 187.371 3.652 187.403 3.676C187.435 3.692 187.459 3.724 187.475 3.772L189.359 8.488C189.415 8.64 189.479 8.636 189.551 8.476L191.423 3.772C191.439 3.724 191.459 3.692 191.483 3.676C191.515 3.652 191.555 3.64 191.603 3.64H192.155ZM193.912 7.216C193.912 7.608 194.004 7.968 194.188 8.296C194.38 8.616 194.632 8.872 194.944 9.064C195.264 9.256 195.62 9.352 196.012 9.352C196.412 9.352 196.768 9.272 197.08 9.112C197.392 8.944 197.66 8.692 197.884 8.356C197.916 8.324 197.94 8.308 197.956 8.308C197.98 8.3 198.012 8.304 198.052 8.32L198.556 8.572C198.628 8.612 198.636 8.668 198.58 8.74C198.364 9.06 198.124 9.324 197.86 9.532C197.604 9.732 197.316 9.88 196.996 9.976C196.676 10.072 196.316 10.12 195.916 10.12C195.324 10.12 194.8 9.984 194.344 9.712C193.888 9.44 193.528 9.06 193.264 8.572C193 8.084 192.868 7.52 192.868 6.88C192.868 6.184 193 5.588 193.264 5.092C193.536 4.588 193.9 4.2 194.356 3.928C194.82 3.656 195.336 3.52 195.904 3.52C196.488 3.52 196.996 3.648 197.428 3.904C197.86 4.16 198.196 4.532 198.436 5.02C198.676 5.508 198.796 6.096 198.796 6.784C198.796 6.84 198.788 6.896 198.772 6.952C198.764 7.008 198.712 7.036 198.616 7.036H194.02C193.988 7.036 193.96 7.056 193.936 7.096C193.92 7.128 193.912 7.168 193.912 7.216ZM197.584 6.376C197.672 6.376 197.728 6.368 197.752 6.352C197.776 6.328 197.788 6.28 197.788 6.208C197.788 5.864 197.712 5.544 197.56 5.248C197.416 4.944 197.204 4.7 196.924 4.516C196.652 4.332 196.32 4.24 195.928 4.24C195.496 4.24 195.132 4.344 194.836 4.552C194.54 4.752 194.316 5.016 194.164 5.344C194.012 5.672 193.936 6.016 193.936 6.376H197.584ZM204.737 10C204.681 10 204.637 9.988 204.605 9.964C204.581 9.932 204.569 9.888 204.569 9.832V9.328C204.569 9.264 204.553 9.228 204.521 9.22C204.497 9.212 204.461 9.232 204.413 9.28C204.325 9.36 204.197 9.468 204.029 9.604C203.869 9.74 203.665 9.86 203.417 9.964C203.169 10.068 202.873 10.12 202.529 10.12C202.025 10.12 201.573 10 201.173 9.76C200.773 9.52 200.453 9.164 200.213 8.692C199.981 8.212 199.865 7.62 199.865 6.916C199.865 6.236 199.981 5.644 200.213 5.14C200.453 4.628 200.785 4.232 201.209 3.952C201.641 3.664 202.129 3.52 202.673 3.52C203.065 3.52 203.393 3.584 203.657 3.712C203.921 3.84 204.153 3.988 204.353 4.156C204.425 4.212 204.473 4.236 204.497 4.228C204.529 4.212 204.545 4.16 204.545 4.072V1.252C204.545 1.148 204.589 1.096 204.677 1.096H205.409C205.497 1.096 205.541 1.148 205.541 1.252V9.808C205.541 9.88 205.529 9.932 205.505 9.964C205.481 9.988 205.429 10 205.349 10H204.737ZM204.533 5.044C204.285 4.796 204.033 4.604 203.777 4.468C203.521 4.332 203.233 4.264 202.913 4.264C202.529 4.264 202.181 4.364 201.869 4.564C201.565 4.756 201.325 5.048 201.149 5.44C200.981 5.832 200.897 6.312 200.897 6.88C200.897 7.464 200.985 7.944 201.161 8.32C201.337 8.688 201.573 8.96 201.869 9.136C202.165 9.304 202.489 9.388 202.841 9.388C203.169 9.388 203.457 9.312 203.705 9.16C203.961 9.008 204.161 8.82 204.305 8.596C204.457 8.372 204.533 8.152 204.533 7.936V5.044ZM208.333 9.808C208.333 9.936 208.261 10 208.117 10H207.277C207.157 10 207.097 9.944 207.097 9.832V8.8C207.097 8.696 207.141 8.644 207.229 8.644H208.213C208.293 8.644 208.333 8.692 208.333 8.788V9.808Z" fill="#666666"/>
</svg>
