<svg width="67" height="16" viewBox="0 0 67 16" fill="none" xmlns="http://www.w3.org/2000/svg">
<path d="M9.832 4.824C9.832 5.61333 9.64533 6.28 9.272 6.824C8.89867 7.35733 8.38667 7.76267 7.736 8.04C7.096 8.31733 6.34933 8.456 5.496 8.456H3.096C2.97867 8.456 2.92 8.51467 2.92 8.632V12.632C2.92 12.8773 2.78133 13 2.504 13H0.456C0.328 13 0.237333 12.9733 0.184 12.92C0.141333 12.8667 0.12 12.7867 0.12 12.68V1.432C0.12 1.22933 0.205333 1.128 0.376 1.128H5.176C6.02933 1.128 6.808 1.26133 7.512 1.528C8.22667 1.79467 8.792 2.2 9.208 2.744C9.624 3.288 9.832 3.98133 9.832 4.824ZM6.952 4.776C6.952 4.40267 6.872 4.09867 6.712 3.864C6.552 3.61867 6.32267 3.43733 6.024 3.32C5.72533 3.20267 5.384 3.144 5 3.144H3.224C3.02133 3.144 2.92 3.23467 2.92 3.416V6.152C2.92 6.35467 2.99467 6.456 3.144 6.456H5.112C5.67733 6.456 6.12533 6.30667 6.456 6.008C6.78667 5.70933 6.952 5.29867 6.952 4.776ZM15.565 12.184C15.2343 12.4827 14.861 12.7227 14.445 12.904C14.0397 13.0747 13.5703 13.16 13.037 13.16C12.2263 13.16 11.5863 12.9413 11.117 12.504C10.6583 12.0667 10.429 11.5067 10.429 10.824C10.429 10.2267 10.6157 9.704 10.989 9.256C11.3623 8.808 11.8957 8.46133 12.589 8.216C13.2823 7.96 14.109 7.82133 15.069 7.8L15.629 7.752C15.693 7.752 15.7517 7.736 15.805 7.704C15.8583 7.672 15.885 7.61333 15.885 7.528V7.192C15.885 6.78667 15.7677 6.472 15.533 6.248C15.2983 6.01333 14.9623 5.896 14.525 5.896C14.205 5.896 13.8957 5.97067 13.597 6.12C13.309 6.25867 13.0637 6.504 12.861 6.856C12.829 6.93067 12.7917 6.97867 12.749 7C12.7063 7.02133 12.6263 7.02133 12.509 7L10.909 6.632C10.845 6.61067 10.797 6.57867 10.765 6.536C10.7437 6.48267 10.765 6.376 10.829 6.216C11.0957 5.58667 11.5543 5.12267 12.205 4.824C12.8663 4.51467 13.677 4.36 14.637 4.36C15.5223 4.36 16.2263 4.472 16.749 4.696C17.2717 4.92 17.6503 5.23467 17.885 5.64C18.1197 6.03467 18.237 6.49867 18.237 7.032V12.648C18.237 12.776 18.2157 12.8667 18.173 12.92C18.1303 12.9733 18.0503 13 17.933 13H16.285C16.1677 13 16.0823 12.9573 16.029 12.872C15.9863 12.7867 15.9597 12.68 15.949 12.552L15.917 12.2C15.8957 12.008 15.7783 12.0027 15.565 12.184ZM15.885 9.224C15.885 9.04267 15.805 8.952 15.645 8.952L15.197 8.984C14.9197 8.99467 14.6423 9.03733 14.365 9.112C14.0877 9.176 13.837 9.272 13.613 9.4C13.389 9.51733 13.2023 9.672 13.053 9.864C12.9143 10.0453 12.845 10.2587 12.845 10.504C12.845 10.824 12.957 11.08 13.181 11.272C13.405 11.4533 13.7143 11.544 14.109 11.544C14.3757 11.544 14.6103 11.5013 14.813 11.416C15.0263 11.3307 15.2077 11.2293 15.357 11.112C15.517 10.9733 15.645 10.8347 15.741 10.696C15.837 10.5573 15.885 10.4133 15.885 10.264V9.224ZM20.3566 13C20.2393 13 20.154 12.9733 20.1006 12.92C20.0473 12.8667 20.0206 12.7867 20.0206 12.68V4.824C20.0206 4.62133 20.106 4.52 20.2766 4.52H22.1486C22.3193 4.52 22.4046 4.61067 22.4046 4.792V5.736C22.4046 5.8 22.426 5.84267 22.4686 5.864C22.522 5.87467 22.5753 5.848 22.6286 5.784C22.842 5.496 23.082 5.24533 23.3486 5.032C23.626 4.81867 23.9086 4.65333 24.1966 4.536C24.4846 4.41867 24.7566 4.36 25.0126 4.36C25.3966 4.36 25.5886 4.45067 25.5886 4.632V6.488C25.5886 6.65867 25.5086 6.728 25.3486 6.696C25.1566 6.64267 24.9593 6.61067 24.7566 6.6C24.554 6.57867 24.378 6.568 24.2286 6.568C24.0366 6.568 23.834 6.60533 23.6206 6.68C23.418 6.75467 23.2313 6.86133 23.0606 7C22.89 7.13867 22.7513 7.288 22.6446 7.448C22.538 7.608 22.4846 7.77867 22.4846 7.96V12.632C22.4846 12.8773 22.346 13 22.0686 13H20.3566ZM30.4011 6.216C30.2838 6.216 30.2251 6.28 30.2251 6.408V10.264C30.2251 10.6267 30.3105 10.888 30.4811 11.048C30.6518 11.1973 30.9238 11.272 31.2971 11.272H32.1611C32.2358 11.272 32.2945 11.2987 32.3371 11.352C32.3798 11.4053 32.4011 11.4693 32.4011 11.544L32.3851 12.52C32.3851 12.7227 32.2678 12.8507 32.0331 12.904C31.8411 12.9253 31.6331 12.9467 31.4091 12.968C31.1958 12.9787 30.9771 12.9893 30.7531 13C30.5398 13 30.3318 13 30.1291 13C29.4038 13 28.8278 12.8293 28.4011 12.488C27.9745 12.136 27.7611 11.6187 27.7611 10.936V6.456C27.7611 6.296 27.6918 6.216 27.5531 6.216H26.5771C26.3745 6.216 26.2731 6.12533 26.2731 5.944V4.76C26.2731 4.6 26.3691 4.52 26.5611 4.52H27.6651C27.7611 4.52 27.8145 4.46133 27.8251 4.344L28.0491 1.912C28.0598 1.73067 28.1398 1.64 28.2891 1.64H30.0331C30.2038 1.64 30.2891 1.74133 30.2891 1.944V4.344C30.2891 4.45067 30.3425 4.504 30.4491 4.504H32.1291C32.3211 4.504 32.4171 4.58933 32.4171 4.76V5.944C32.4171 6.12533 32.3105 6.216 32.0971 6.216H30.4011ZM34.5234 15.64C34.1927 15.64 33.9527 15.624 33.8034 15.592C33.654 15.56 33.5794 15.4747 33.5794 15.336V14.104C33.5794 14.04 33.6114 13.9813 33.6754 13.928C33.7394 13.8747 33.862 13.848 34.0434 13.848H35.1314C35.334 13.848 35.5154 13.8 35.6754 13.704C35.846 13.608 35.9794 13.4907 36.0754 13.352C36.182 13.2133 36.2567 13.064 36.2994 12.904C36.342 12.744 36.3314 12.6 36.2674 12.472L33.1954 4.904C33.1527 4.808 33.1527 4.72267 33.1954 4.648C33.2487 4.56267 33.334 4.52 33.4514 4.52H35.4674C35.5527 4.52 35.6274 4.54667 35.6914 4.6C35.7554 4.64267 35.798 4.70667 35.8194 4.792L37.5954 9.56C37.6274 9.656 37.67 9.70933 37.7234 9.72C37.7767 9.72 37.8247 9.66133 37.8674 9.544L39.6274 4.776C39.67 4.70133 39.718 4.64267 39.7714 4.6C39.8247 4.54667 39.894 4.52 39.9794 4.52H41.3554C41.462 4.52 41.5367 4.56267 41.5794 4.648C41.622 4.72267 41.622 4.80267 41.5794 4.888L38.2994 13C38.0754 13.5547 37.8407 14.0027 37.5954 14.344C37.3607 14.696 37.0994 14.9627 36.8114 15.144C36.5234 15.336 36.1927 15.464 35.8194 15.528C35.4567 15.6027 35.0247 15.64 34.5234 15.64ZM51.4268 13.16C50.2961 13.16 49.3201 12.92 48.4988 12.44C47.6774 11.9493 47.0428 11.2507 46.5948 10.344C46.1574 9.43733 45.9388 8.36 45.9388 7.112C45.9388 5.84267 46.1628 4.74933 46.6108 3.832C47.0694 2.91467 47.7094 2.21067 48.5308 1.72C49.3521 1.21867 50.3174 0.967999 51.4268 0.967999C52.5361 0.967999 53.4961 1.21867 54.3068 1.72C55.1281 2.21067 55.7628 2.91467 56.2108 3.832C56.6588 4.73867 56.8828 5.82667 56.8828 7.096C56.8828 8.344 56.6588 9.42133 56.2108 10.328C55.7734 11.2347 55.1441 11.9333 54.3228 12.424C53.5014 12.9147 52.5361 13.16 51.4268 13.16ZM51.4268 11.192C52.3014 11.192 52.9414 10.8773 53.3468 10.248C53.7521 9.608 53.9548 8.568 53.9548 7.128C53.9548 5.656 53.7468 4.58933 53.3308 3.928C52.9254 3.256 52.2908 2.92 51.4268 2.92C50.5521 2.92 49.9068 3.256 49.4908 3.928C49.0748 4.6 48.8668 5.66667 48.8668 7.128C48.8668 8.55733 49.0694 9.592 49.4748 10.232C49.8908 10.872 50.5414 11.192 51.4268 11.192ZM58.8254 13C58.6014 13 58.4894 12.8933 58.4894 12.68V4.824C58.4894 4.62133 58.5747 4.52 58.7454 4.52H60.6814C60.8414 4.52 60.9214 4.61067 60.9214 4.792V5.576C60.9214 5.64 60.9374 5.68267 60.9694 5.704C61.0014 5.72533 61.0494 5.704 61.1134 5.64C61.3907 5.384 61.668 5.16 61.9454 4.968C62.2227 4.776 62.516 4.62667 62.8254 4.52C63.1347 4.41333 63.4654 4.36 63.8174 4.36C64.596 4.36 65.2094 4.58933 65.6574 5.048C66.116 5.50667 66.3454 6.12 66.3454 6.888V12.616C66.3454 12.872 66.2174 13 65.9614 13H64.1854C64.0787 13 63.9987 12.9787 63.9454 12.936C63.9027 12.8827 63.8814 12.7973 63.8814 12.68V7.272C63.8814 6.90933 63.78 6.632 63.5774 6.44C63.3854 6.23733 63.0974 6.136 62.7134 6.136C62.4894 6.136 62.2814 6.17333 62.0894 6.248C61.8974 6.32267 61.7107 6.43467 61.5294 6.584C61.348 6.72267 61.156 6.904 60.9534 7.128V12.632C60.9534 12.8773 60.8147 13 60.5374 13H58.8254Z" fill="#5AB963"/>
</svg>
